<svg xmlns="http://www.w3.org/2000/svg" viewBox="0 0 800 600" width="800" height="600" preserveAspectRatio="xMidYMid slice" role="img">
  <defs>
    <linearGradient id="bg8695" x1="0" y1="0" x2="1" y2="1">
      <stop offset="0" stop-color="#f2ece3"/><stop offset="1" stop-color="#e8dfd3"/>
    </linearGradient>
    <pattern id="dot8695" width="26" height="26" patternUnits="userSpaceOnUse">
      <circle cx="2" cy="2" r="1.6" fill="#c4956a" opacity=".18"/>
    </pattern>
  </defs>
  <rect width="800" height="600" fill="url(#bg8695)"/><rect width="800" height="600" fill="url(#dot8695)"/>
  <path d="M36 82 V36 H82" stroke="#8b5c3e" stroke-width="3" fill="none" stroke-linecap="round" opacity=".55"/><path d="M764 518 V564 H718" stroke="#8b5c3e" stroke-width="3" fill="none" stroke-linecap="round" opacity=".55"/>
  <g transform="translate(400.0,300.0)" stroke="#8b5c3e" fill="none" stroke-width="3.2" stroke-linecap="round" stroke-linejoin="round">
    <path d="M0 -120 L100 -82 V20 C100 78 56 112 0 130 C-56 112 -100 78 -100 20 V-82 Z" fill="#c4956a" opacity=".18"/>
    <path d="M0 -120 L100 -82 V20 C100 78 56 112 0 130 C-56 112 -100 78 -100 20 V-82 Z"/>
    <path d="M-40 0 l28 30 l54 -62" stroke-width="5"/>
  </g>
</svg>