<svg xmlns="http://www.w3.org/2000/svg" viewBox="0 0 1100 560" width="1100" height="560" preserveAspectRatio="xMidYMid slice" role="img">
  <defs>
    <linearGradient id="bg9563" x1="0" y1="0" x2="1" y2="1">
      <stop offset="0" stop-color="#f2ece3"/><stop offset="1" stop-color="#e8dfd3"/>
    </linearGradient>
    <pattern id="dot9563" width="26" height="26" patternUnits="userSpaceOnUse">
      <circle cx="2" cy="2" r="1.6" fill="#c4956a" opacity=".18"/>
    </pattern>
  </defs>
  <rect width="1100" height="560" fill="url(#bg9563)"/><rect width="1100" height="560" fill="url(#dot9563)"/>
  <path d="M36 82 V36 H82" stroke="#8b5c3e" stroke-width="3" fill="none" stroke-linecap="round" opacity=".55"/><path d="M1064 478 V524 H1018" stroke="#8b5c3e" stroke-width="3" fill="none" stroke-linecap="round" opacity=".55"/>
  <g transform="translate(550.0,280.0)" stroke="#8b5c3e" fill="none" stroke-width="3.2" stroke-linecap="round" stroke-linejoin="round">
    <circle cx="-95" cy="-44" r="26" fill="#c4956a" opacity=".25"/><circle cx="-95" cy="-44" r="26"/><path d="M-137 78 a42 52 0 0 1 84 0" /><circle cx="0" cy="-44" r="26" fill="#c4956a" opacity=".25"/><circle cx="0" cy="-44" r="26"/><path d="M-42 78 a42 52 0 0 1 84 0" /><circle cx="95" cy="-44" r="26" fill="#c4956a" opacity=".25"/><circle cx="95" cy="-44" r="26"/><path d="M53 78 a42 52 0 0 1 84 0" /><ellipse cx="0" cy="108" rx="150" ry="20" opacity=".4"/>
  </g>
</svg>