<svg xmlns="http://www.w3.org/2000/svg" viewBox="0 0 800 600" width="800" height="600" preserveAspectRatio="xMidYMid slice" role="img">
  <defs>
    <linearGradient id="bg4310" x1="0" y1="0" x2="1" y2="1">
      <stop offset="0" stop-color="#f2ece3"/><stop offset="1" stop-color="#e8dfd3"/>
    </linearGradient>
    <pattern id="dot4310" width="26" height="26" patternUnits="userSpaceOnUse">
      <circle cx="2" cy="2" r="1.6" fill="#c4956a" opacity=".18"/>
    </pattern>
  </defs>
  <rect width="800" height="600" fill="url(#bg4310)"/><rect width="800" height="600" fill="url(#dot4310)"/>
  <path d="M36 82 V36 H82" stroke="#8b5c3e" stroke-width="3" fill="none" stroke-linecap="round" opacity=".55"/><path d="M764 518 V564 H718" stroke="#8b5c3e" stroke-width="3" fill="none" stroke-linecap="round" opacity=".55"/>
  <g transform="translate(400.0,300.0)" stroke="#8b5c3e" fill="none" stroke-width="3.2" stroke-linecap="round" stroke-linejoin="round">
    <rect x="-52" y="-110" width="104" height="56" rx="8" fill="#c4956a" opacity=".22" stroke="#8b5c3e"/>
    <line x1="0" y1="-54" x2="0" y2="-24"/><line x1="-90" y1="-24" x2="90" y2="-24"/>
    <line x1="-90" y1="-24" x2="-90" y2="6"/><line x1="90" y1="-24" x2="90" y2="6"/>
    <rect x="-142" y="6" width="104" height="50" rx="8"/><rect x="38" y="6" width="104" height="50" rx="8"/>
    <line x1="-90" y1="56" x2="-90" y2="80"/><rect x="-130" y="80" width="80" height="42" rx="7"/>
    <line x1="90" y1="56" x2="90" y2="80"/><rect x="50" y="80" width="80" height="42" rx="7"/>
  </g>
</svg>