<svg xmlns="http://www.w3.org/2000/svg" viewBox="0 0 800 600" width="800" height="600" preserveAspectRatio="xMidYMid slice" role="img">
  <defs>
    <linearGradient id="bg6901" x1="0" y1="0" x2="1" y2="1">
      <stop offset="0" stop-color="#f2ece3"/><stop offset="1" stop-color="#e8dfd3"/>
    </linearGradient>
    <pattern id="dot6901" width="26" height="26" patternUnits="userSpaceOnUse">
      <circle cx="2" cy="2" r="1.6" fill="#c4956a" opacity=".18"/>
    </pattern>
  </defs>
  <rect width="800" height="600" fill="url(#bg6901)"/><rect width="800" height="600" fill="url(#dot6901)"/>
  <path d="M36 82 V36 H82" stroke="#8b5c3e" stroke-width="3" fill="none" stroke-linecap="round" opacity=".55"/><path d="M764 518 V564 H718" stroke="#8b5c3e" stroke-width="3" fill="none" stroke-linecap="round" opacity=".55"/>
  <g transform="translate(400.0,300.0)" stroke="#8b5c3e" fill="none" stroke-width="3.2" stroke-linecap="round" stroke-linejoin="round">
    <g transform="rotate(-38)"><rect x="-92" y="-34" width="184" height="68" rx="34"/>
    <line x1="0" y1="-34" x2="0" y2="34"/>
    <path d="M-92 0 a34 34 0 0 1 34 -34 h58 v68 h-58 a34 34 0 0 1 -34 -34 Z" fill="#c4956a" opacity=".28" stroke="none"/></g>
    <polyline points="-110,-78 -50,-50 10,-86 110,-30" stroke-width="3.4" opacity=".8"/>
    <path d="M110 -30 v-34 m0 34 h-34" stroke-width="3.4"/>
  </g>
</svg>