<svg xmlns="http://www.w3.org/2000/svg" viewBox="0 0 1200 600" font-family="Pretendard, -apple-system, BlinkMacSystemFont, sans-serif">
  <rect width="1200" height="600" fill="#F7F9FF"/>
  <text x="80" y="90" font-size="22" font-weight="700" letter-spacing="3" fill="#1246C8">CSO STRUCTURE</text>
  <text x="80" y="140" font-size="40" font-weight="800" fill="#1a1a1a">제약 CSO는 어떻게 연결되나</text>
  <rect x="70" y="250" width="300" height="180" rx="20" fill="#ffffff" stroke="#E5E9F0" stroke-width="2"/>
  <circle cx="220" cy="318" r="32" fill="#EEF3FF"/>
  <g fill="#1246C8">
    <rect x="204" y="305" width="13" height="26" rx="2"/>
    <rect x="221" y="298" width="13" height="33" rx="2"/>
    <rect x="208" y="335" width="22" height="4" rx="2"/>
  </g>
  <text x="220" y="382" font-size="26" font-weight="800" fill="#1a1a1a" text-anchor="middle">제약사 · 본사</text>
  <text x="220" y="412" font-size="16" fill="#6B7280" text-anchor="middle">의약품 공급 · 수수료 지급</text>
  <rect x="450" y="240" width="300" height="200" rx="20" fill="#1246C8"/>
  <circle cx="600" cy="312" r="34" fill="rgba(255,255,255,0.16)"/>
  <g fill="none" stroke="#ffffff" stroke-width="3.5">
    <circle cx="590" cy="312" r="11"/>
    <circle cx="610" cy="312" r="11"/>
  </g>
  <text x="600" y="380" font-size="28" font-weight="800" fill="#ffffff" text-anchor="middle">CSO</text>
  <text x="600" y="410" font-size="16" fill="rgba(255,255,255,0.8)" text-anchor="middle">영업 대행 · 처방 관리 · 정산</text>
  <rect x="830" y="250" width="300" height="180" rx="20" fill="#ffffff" stroke="#E5E9F0" stroke-width="2"/>
  <circle cx="980" cy="318" r="32" fill="#EEF3FF"/>
  <g fill="#1246C8">
    <rect x="974" y="302" width="12" height="32" rx="2"/>
    <rect x="964" y="312" width="32" height="12" rx="2"/>
  </g>
  <text x="980" y="382" font-size="26" font-weight="800" fill="#1a1a1a" text-anchor="middle">병의원 · 약국</text>
  <text x="980" y="412" font-size="16" fill="#6B7280" text-anchor="middle">처방 · 조제</text>
  <line x1="378" y1="340" x2="442" y2="340" stroke="#1246C8" stroke-width="3"/>
  <polygon points="442,340 430,333 430,347" fill="#1246C8"/>
  <line x1="758" y1="340" x2="822" y2="340" stroke="#1246C8" stroke-width="3"/>
  <polygon points="822,340 810,333 810,347" fill="#1246C8"/>
  <text x="600" y="510" font-size="17" fill="#9CA3AF" text-anchor="middle">제약사의 영업을 위탁받아 병의원·약국을 관리하고, 처방 실적에 따라 수수료를 정산하는 구조</text>
  <text x="1120" y="560" font-size="15" font-weight="700" fill="#1246C8" text-anchor="end">모두의CSO</text>
</svg>
