<svg xmlns="http://www.w3.org/2000/svg" viewBox="0 0 800 600" width="800" height="600" preserveAspectRatio="xMidYMid slice" role="img">
  <defs>
    <linearGradient id="bg5065" x1="0" y1="0" x2="1" y2="1">
      <stop offset="0" stop-color="#f2ece3"/><stop offset="1" stop-color="#e8dfd3"/>
    </linearGradient>
    <pattern id="dot5065" width="26" height="26" patternUnits="userSpaceOnUse">
      <circle cx="2" cy="2" r="1.6" fill="#c4956a" opacity=".18"/>
    </pattern>
  </defs>
  <rect width="800" height="600" fill="url(#bg5065)"/><rect width="800" height="600" fill="url(#dot5065)"/>
  <path d="M36 82 V36 H82" stroke="#8b5c3e" stroke-width="3" fill="none" stroke-linecap="round" opacity=".55"/><path d="M764 518 V564 H718" stroke="#8b5c3e" stroke-width="3" fill="none" stroke-linecap="round" opacity=".55"/>
  <g transform="translate(400.0,300.0)" stroke="#8b5c3e" fill="none" stroke-width="3.2" stroke-linecap="round" stroke-linejoin="round">
    <line x1="0" y1="-105" x2="-105" y2="-25" opacity=".55"/><line x1="0" y1="-105" x2="105" y2="-25" opacity=".55"/><line x1="-105" y1="-25" x2="-65" y2="90" opacity=".55"/><line x1="105" y1="-25" x2="65" y2="90" opacity=".55"/><line x1="-65" y1="90" x2="65" y2="90" opacity=".55"/><line x1="-105" y1="-25" x2="105" y2="-25" opacity=".55"/><circle cx="0" cy="-105" r="22" fill="#c4956a" opacity=".25"/><circle cx="0" cy="-105" r="22"/><circle cx="-105" cy="-25" r="22" fill="#c4956a" opacity=".25"/><circle cx="-105" cy="-25" r="22"/><circle cx="105" cy="-25" r="22" fill="#c4956a" opacity=".25"/><circle cx="105" cy="-25" r="22"/><circle cx="-65" cy="90" r="22" fill="#c4956a" opacity=".25"/><circle cx="-65" cy="90" r="22"/><circle cx="65" cy="90" r="22" fill="#c4956a" opacity=".25"/><circle cx="65" cy="90" r="22"/>
  </g>
</svg>