<svg xmlns="http://www.w3.org/2000/svg" viewBox="0 0 800 600" width="800" height="600" preserveAspectRatio="xMidYMid slice" role="img">
  <defs>
    <linearGradient id="bg1871" x1="0" y1="0" x2="1" y2="1">
      <stop offset="0" stop-color="#5c3d2e"/><stop offset="1" stop-color="#2a1c12"/>
    </linearGradient>
    <pattern id="dot1871" width="26" height="26" patternUnits="userSpaceOnUse">
      <circle cx="2" cy="2" r="1.6" fill="#c4956a" opacity=".14"/>
    </pattern>
  </defs>
  <rect width="800" height="600" fill="url(#bg1871)"/><rect width="800" height="600" fill="url(#dot1871)"/>
  <path d="M36 82 V36 H82" stroke="#c4956a" stroke-width="3" fill="none" stroke-linecap="round" opacity=".55"/><path d="M764 518 V564 H718" stroke="#c4956a" stroke-width="3" fill="none" stroke-linecap="round" opacity=".55"/>
  <g transform="translate(400.0,300.0)" stroke="#c4956a" fill="none" stroke-width="3.2" stroke-linecap="round" stroke-linejoin="round">
    <rect x="-130" y="-90" width="105" height="180" rx="9"/>
    <rect x="25" y="-90" width="105" height="180" rx="9"/>
    <line x1="-108" y1="-50" x2="-47" y2="-50"/><line x1="-108" y1="-14" x2="-47" y2="-14"/><line x1="-108" y1="22" x2="-60" y2="22"/>
    <line x1="47" y1="-50" x2="108" y2="-50"/><line x1="47" y1="-14" x2="108" y2="-14"/><line x1="47" y1="22" x2="95" y2="22"/>
    <circle cx="0" cy="60" r="30" fill="#f2ece3" opacity=".22"/>
    <path d="M-13 60 l9 10 l18 -20" stroke-width="4"/>
  </g>
</svg>