<svg xmlns="http://www.w3.org/2000/svg" viewBox="0 0 1200 460" width="1200" height="460" preserveAspectRatio="xMidYMid slice" role="img">
  <defs>
    <linearGradient id="bg2258" x1="0" y1="0" x2="1" y2="1">
      <stop offset="0" stop-color="#5c3d2e"/><stop offset="1" stop-color="#2a1c12"/>
    </linearGradient>
    <pattern id="dot2258" width="26" height="26" patternUnits="userSpaceOnUse">
      <circle cx="2" cy="2" r="1.6" fill="#c4956a" opacity=".14"/>
    </pattern>
  </defs>
  <rect width="1200" height="460" fill="url(#bg2258)"/><rect width="1200" height="460" fill="url(#dot2258)"/>
  <path d="M36 82 V36 H82" stroke="#c4956a" stroke-width="3" fill="none" stroke-linecap="round" opacity=".55"/><path d="M1164 378 V424 H1118" stroke="#c4956a" stroke-width="3" fill="none" stroke-linecap="round" opacity=".55"/>
  <g transform="translate(600.0,230.0)" stroke="#c4956a" fill="none" stroke-width="3.2" stroke-linecap="round" stroke-linejoin="round">
    <circle cx="-220" cy="0" r="40" fill="#f2ece3" opacity=".15"/><circle cx="-220" cy="0" r="40"/><line x1="-176" y1="0" x2="-119" y2="0" stroke-dasharray="3 10" opacity=".6"/><circle cx="-75" cy="0" r="40" fill="#f2ece3" opacity=".15"/><circle cx="-75" cy="0" r="40"/><line x1="-31" y1="0" x2="31" y2="0" stroke-dasharray="3 10" opacity=".6"/><circle cx="75" cy="0" r="40" fill="#f2ece3" opacity=".15"/><circle cx="75" cy="0" r="40"/><line x1="119" y1="0" x2="176" y2="0" stroke-dasharray="3 10" opacity=".6"/><circle cx="220" cy="0" r="40" fill="#f2ece3" opacity=".15"/><circle cx="220" cy="0" r="40"/><path d="M-14 -10 l14 10 l-14 10" transform="translate(75,0)" stroke-width="3"/>
  </g>
</svg>