<svg xmlns="http://www.w3.org/2000/svg" viewBox="0 0 1200 520" width="1200" height="520" preserveAspectRatio="xMidYMid slice" role="img">
  <defs>
    <linearGradient id="bg2556" x1="0" y1="0" x2="1" y2="1">
      <stop offset="0" stop-color="#5c3d2e"/><stop offset="1" stop-color="#2a1c12"/>
    </linearGradient>
    <pattern id="dot2556" width="26" height="26" patternUnits="userSpaceOnUse">
      <circle cx="2" cy="2" r="1.6" fill="#c4956a" opacity=".14"/>
    </pattern>
  </defs>
  <rect width="1200" height="520" fill="url(#bg2556)"/><rect width="1200" height="520" fill="url(#dot2556)"/>
  <path d="M36 82 V36 H82" stroke="#c4956a" stroke-width="3" fill="none" stroke-linecap="round" opacity=".55"/><path d="M1164 438 V484 H1118" stroke="#c4956a" stroke-width="3" fill="none" stroke-linecap="round" opacity=".55"/>
  <g transform="translate(600.0,260.0)" stroke="#c4956a" fill="none" stroke-width="3.2" stroke-linecap="round" stroke-linejoin="round">
    <line x1="-260" y1="-60" x2="-40" y2="-60" opacity=".5"/><line x1="-260" y1="-20" x2="10" y2="-20" opacity=".5"/>
    <line x1="-260" y1="20" x2="-80" y2="20" opacity=".5"/><line x1="-260" y1="60" x2="-30" y2="60" opacity=".5"/>
    <circle cx="120" cy="0" r="70"/><line x1="170" y1="50" x2="220" y2="100"/>
    <circle cx="120" cy="0" r="70" fill="#f2ece3" opacity=".12" stroke="none"/>
    <circle cx="-300" cy="-60" r="5" fill="#f2ece3" stroke="none"/><circle cx="-300" cy="-20" r="5" fill="#f2ece3" stroke="none"/>
    <circle cx="-300" cy="20" r="5" fill="#f2ece3" stroke="none"/><circle cx="-300" cy="60" r="5" fill="#f2ece3" stroke="none"/>
  </g>
</svg>