<svg xmlns="http://www.w3.org/2000/svg" viewBox="0 0 800 600" width="800" height="600" preserveAspectRatio="xMidYMid slice" role="img">
  <defs>
    <linearGradient id="bg1011" x1="0" y1="0" x2="1" y2="1">
      <stop offset="0" stop-color="#5c3d2e"/><stop offset="1" stop-color="#2a1c12"/>
    </linearGradient>
    <pattern id="dot1011" width="26" height="26" patternUnits="userSpaceOnUse">
      <circle cx="2" cy="2" r="1.6" fill="#c4956a" opacity=".14"/>
    </pattern>
  </defs>
  <rect width="800" height="600" fill="url(#bg1011)"/><rect width="800" height="600" fill="url(#dot1011)"/>
  <path d="M36 82 V36 H82" stroke="#c4956a" stroke-width="3" fill="none" stroke-linecap="round" opacity=".55"/><path d="M764 518 V564 H718" stroke="#c4956a" stroke-width="3" fill="none" stroke-linecap="round" opacity=".55"/>
  <g transform="translate(400.0,300.0)" stroke="#c4956a" fill="none" stroke-width="3.2" stroke-linecap="round" stroke-linejoin="round">
    <circle cx="-95" cy="-44" r="26" fill="#f2ece3" opacity=".25"/><circle cx="-95" cy="-44" r="26"/><path d="M-137 78 a42 52 0 0 1 84 0" /><circle cx="0" cy="-44" r="26" fill="#f2ece3" opacity=".25"/><circle cx="0" cy="-44" r="26"/><path d="M-42 78 a42 52 0 0 1 84 0" /><circle cx="95" cy="-44" r="26" fill="#f2ece3" opacity=".25"/><circle cx="95" cy="-44" r="26"/><path d="M53 78 a42 52 0 0 1 84 0" /><ellipse cx="0" cy="108" rx="150" ry="20" opacity=".4"/>
  </g>
</svg>