<svg xmlns="http://www.w3.org/2000/svg" viewBox="0 0 800 600" width="800" height="600" preserveAspectRatio="xMidYMid slice" role="img">
  <defs>
    <linearGradient id="bg829" x1="0" y1="0" x2="1" y2="1">
      <stop offset="0" stop-color="#5c3d2e"/><stop offset="1" stop-color="#2a1c12"/>
    </linearGradient>
    <pattern id="dot829" width="26" height="26" patternUnits="userSpaceOnUse">
      <circle cx="2" cy="2" r="1.6" fill="#c4956a" opacity=".14"/>
    </pattern>
  </defs>
  <rect width="800" height="600" fill="url(#bg829)"/><rect width="800" height="600" fill="url(#dot829)"/>
  <path d="M36 82 V36 H82" stroke="#c4956a" stroke-width="3" fill="none" stroke-linecap="round" opacity=".55"/><path d="M764 518 V564 H718" stroke="#c4956a" stroke-width="3" fill="none" stroke-linecap="round" opacity=".55"/>
  <g transform="translate(400.0,300.0)" stroke="#c4956a" fill="none" stroke-width="3.2" stroke-linecap="round" stroke-linejoin="round">
    <line x1="-110" y1="-70" x2="20" y2="-70"/><line x1="-110" y1="-30" x2="40" y2="-30"/>
    <line x1="-110" y1="10" x2="-10" y2="10"/><line x1="-110" y1="50" x2="30" y2="50"/>
    <circle cx="70" cy="40" r="46"/><line x1="103" y1="73" x2="130" y2="100"/>
    <circle cx="-118" cy="-70" r="5" fill="#f2ece3" stroke="none"/><circle cx="-118" cy="-30" r="5" fill="#f2ece3" stroke="none"/>
    <circle cx="-118" cy="10" r="5" fill="#f2ece3" stroke="none"/><circle cx="-118" cy="50" r="5" fill="#f2ece3" stroke="none"/>
  </g>
</svg>